/* XPM */
static char *result[] = {
/* columns rows colors chars-per-pixel */
"64 64 183 2 ",
"   c #42763D",
".  c #485B47",
"X  c #4C584C",
"o  c #535053",
"O  c #5A5D5A",
"+  c #554F56",
"@  c #4E654C",
"#  c #4B6D48",
"$  c #51634F",
"%  c #50694E",
"&  c #477843",
"*  c #5D6E5C",
"=  c #546453",
"-  c #5A7557",
";  c #5D745A",
":  c #5C7959",
">  c #577054",
",  c #615D62",
"<  c #636563",
"1  c #6C6B6C",
"2  c #646A63",
"3  c #6A7F68",
"4  c #697F67",
"5  c #726F73",
"6  c #737273",
"7  c #7D7B7C",
"8  c #757975",
"9  c #CE191E",
"0  c #CE1B20",
"q  c #D1282D",
"w  c #D22C31",
"e  c #C73F43",
"r  c #C64346",
"t  c #D74246",
"y  c #D84448",
"u  c #DC4F54",
"i  c #DA5256",
"p  c #DB5559",
"a  c #C15F61",
"s  c #CE676A",
"d  c #CF6A6C",
"f  c #D06D70",
"g  c #D06B6D",
"h  c #E06B6F",
"j  c #E06D70",
"k  c #E3797C",
"l  c #36942E",
"z  c #38962F",
"x  c #369B2D",
"c  c #389C2F",
"v  c #3D8C36",
"b  c #3F8439",
"n  c #3F8E38",
"m  c #3E8337",
"M  c #399531",
"N  c #3A9931",
"B  c #31A626",
"V  c #32AB27",
"C  c #36A52B",
"Z  c #38A32E",
"A  c #36AB2B",
"S  c #39A82E",
"D  c #3CA133",
"F  c #2FAB23",
"G  c #41853A",
"H  c #448A3D",
"J  c #42953A",
"K  c #449D3C",
"L  c #409637",
"P  c #40A137",
"I  c #43A23A",
"U  c #478F41",
"Y  c #498243",
"T  c #52804D",
"R  c #4A9144",
"E  c #4F9348",
"W  c #539C4C",
"Q  c #51954A",
"!  c #5B8C56",
"~  c #5C8459",
"^  c #598A55",
"/  c #579B50",
"(  c #589B51",
")  c #62975D",
"_  c #49A341",
"`  c #4EAB45",
"'  c #54AC4C",
"]  c #53A54B",
"[  c #56B14D",
"{  c #57A051",
"}  c #5AA154",
"|  c #60A259",
" . c #678465",
".. c #698366",
"X. c #6B8269",
"o. c #72826F",
"O. c #689C63",
"+. c #798E77",
"@. c #7B8C7A",
"#. c #768974",
"$. c #749172",
"%. c #789275",
"&. c #70A46C",
"*. c #6FB168",
"=. c #6BAF65",
"-. c #80877F",
";. c #84B67F",
":. c #817B81",
">. c #858485",
",. c #89848A",
"<. c #8C898C",
"1. c #888787",
"2. c #918F8F",
"3. c #918A91",
"4. c #949394",
"5. c #99979A",
"6. c #9B9A9A",
"7. c #9A9997",
"8. c #8E948D",
"9. c #B78C8C",
"0. c #A19F9E",
"q. c #BA9897",
"w. c #BA9A99",
"e. c #B69695",
"r. c #87AE83",
"t. c #93AE8F",
"y. c #86B382",
"u. c #93BC8F",
"i. c #95AA91",
"p. c #98AE96",
"a. c #9EA39C",
"s. c #9CAC9B",
"d. c #97A693",
"f. c #9DB29B",
"g. c #9FBB9D",
"h. c #A1A29F",
"j. c #A0BB9E",
"k. c #A0B79E",
"l. c #A19FA1",
"z. c #A4A3A3",
"x. c #A8A5A9",
"c. c #AEAEAC",
"v. c #B0AFAD",
"b. c #B2A7A6",
"n. c #A2B8A0",
"m. c #A7B3A6",
"M. c #B1B1AE",
"N. c #B1AFB1",
"B. c #AFB2B0",
"V. c #B3B2B1",
"C. c #BDB3B2",
"Z. c #BCBBBB",
"A. c #B8B3B8",
"S. c #E88F92",
"D. c #E99295",
"F. c #C0B3B2",
"G. c #C2BEBD",
"H. c #ECA3A5",
"J. c #E0B7B8",
"K. c #E0BABA",
"L. c #E1B6B7",
"P. c #F1BCBE",
"I. c #B7C6B6",
"U. c #BCC1BC",
"Y. c #C3C0BF",
"T. c #C0BDC1",
"R. c #C5C3C5",
"E. c #C8C6C8",
"W. c #D9CECE",
"Q. c #D3D3D2",
"!. c #DDD8D8",
"~. c #F5C5C7",
"^. c #F5C7C8",
"/. c #F4C9CA",
"(. c #E9DCDC",
"). c #FADEDF",
"_. c #DFDEE0",
"`. c #E1DFE1",
"'. c #E9DFE0",
"]. c #FBDFE1",
"[. c #E9E0E0",
"{. c #F9E0E1",
"}. c None",
/* pixels */
"}.}.}.}.}.}.}.}.}.}.}.}.}.}.}.}.M.v.v.b.c.c.B.B.c.v.B.B.v.v.B.B.v.v.B.B.v.c.c.c.c.c.c.M.}.}.}.}.}.}.}.}.}.}.}.}.}.}.}.}.}.}.}.}.",
"}.}.}.}.}.}.}.}.}.}.}.}.}.}.}.}.v.M.Z.G.Y.F.w.w.F.F.q.q.C.C.w.w.C.C.q.q.C.Y.Y.G.R.Z.M.v.}.}.}.}.}.}.}.}.}.}.}.}.}.}.}.}.}.}.}.}.",
"}.}.}.}.}.}.}.}.}.}.}.}.}.}.}.}.c.Z.W.(.[.L.s d K.K.s s K.K.d s J.L.s s L.[.(.(.(.W.Z.B.}.}.}.}.}.}.}.}.}.}.}.}.}.}.}.}.}.}.}.}.",
"}.}.}.}.}.}.}.}.}.}.}.}.}.}.}.}.c.G.(.).^.D.t y D.H.h h H.D.y i P.P.p t S.^.).).~.J.C.m.}.}.}.}.}.}.}.}.}.}.}.}.}.}.}.}.}.}.}.}.",
"}.}.}.}.}.}.}.}.}.}.}.}.}.}.}.}.c.G.(.~.k t w w y j H.H.j y q p P.P.p w y k /./.k d w.B.}.}.}.}.}.}.}.}.}.}.}.}.}.}.}.}.}.}.}.}.",
"}.}.}.}.}.}.}.}.}.}.}.}.}.}.}.}.c.G.(.~.k t w w y j H.H.h t q p P.P.p 0 9 i P.P.i r 9.B.}.}.}.}.}.}.}.}.}.}.}.}.}.}.}.}.}.}.}.}.",
"}.}.}.}.}.}.}.}.}.}.}.}.}.}.}.}.c.G.(.].~.S.t y D.H.h h H.D.y i P.P.p 0 9 p P.P.u w 9.V.}.}.}.}.}.}.}.}.}.}.}.}.}.}.}.}.}.}.}.}.",
"}.}.}.}.}.}.}.}.}.}.}.}.}.}.}.}.c.Z.W.(.[.J.d d K.K.s s K.K.d d K.K.d r r d K.L.s s e.V.}.}.}.}.}.}.}.}.}.}.}.}.}.}.}.}.}.}.}.}.",
"}.}.}.}.}.}.}.}.}.}.}.}.}.}.}.}.v.C.Z.G.G.F.w.w.F.C.q.q.F.C.w.w.C.C.w.9.9.w.C.C.w.q.b.B.}.}.}.}.}.}.}.}.}.}.}.}.}.}.}.}.}.}.}.}.",
"}.}.}.}.}.}.}.}.}.}.}.}.}.}.}.}.M.v.c.c.c.c.B.B.M.v.B.B.M.v.B.B.v.c.B.B.V.V.v.v.M.B.M.c.}.}.}.}.}.}.}.}.}.}.}.}.}.}.}.}.}.}.}.}.",
"}.}.}.}.}.}.}.}.}.}.}.}.}.}.}.}.}.}.}.}.}.}.}.}.}.}.}.}.}.}.}.}.}.}.}.}.}.}.}.}.}.}.}.}.}.}.}.}.}.}.}.}.}.}.}.}.}.}.}.}.}.}.}.}.",
"}.}.}.}.}.}.}.}.}.}.}.}.}.}.}.}.}.}.}.}.}.}.}.}.}.}.}.}.}.}.}.}.}.}.}.}.}.}.}.}.}.}.}.}.}.}.}.}.}.}.}.}.}.}.}.}.}.}.}.}.}.}.}.}.",
"}.}.}.}.}.}.}.}.}.}.}.}.v.v.M.M.M.V.M.V.M.V.V.V.V.M.V.M.B.B.V.M.V.V.M.V.M.V.M.V.V.M.M.V.M.V.M.M.M.v.}.}.}.}.}.}.}.}.}.}.}.}.}.}.",
"}.}.}.}.}.}.}.}.}.}.}.}.M.c.z.0.0.0.0.0.h.0.0.0.0.h.0.h.l.l.6.z.h.h.0.0.h.h.0.0.h.h.0.0.0.h.0.z.c.v.}.}.}.}.}.}.}.}.}.}.}.}.}.}.",
"}.}.}.}.}.}.}.}.}.}.}.}.M.h.1.7 7 7 7 7 7 :.7 7 7 7 7 7 7 7 7 7 7 7 7 7 7 7 7 7 7 7 7 7 7 7 7 1.z.M.}.}.}.}.}.}.}.}.}.}.}.}.}.}.",
"}.}.}.}.}.}.}.}.}.}.}.}.M.a.7 2 ; ; : : ; ; : ; ; ; ; ; - - ; ; ; - : : ; ; ; : : : ; : ; : - o.a.V.}.}.}.}.}.}.}.}.}.}.}.}.}.}.",
"}.}.}.}.}.}.}.}.}.}.}.}.C.0.7 * & J J J H H L K H H H H n N n H H J L n J H K N K N K N N n H ! d.N.}.}.}.}.}.}.}.}.}.}.}.}.}.}.",
"}.}.}.}.}.}.}.}.}.}.}.}.M.0.7 ; H N C C Z c C A Z N l D ' [ } / R J D C N c C A A A A A A V x / t.v.}.}.}.}.}.}.}.}.}.}.}.}.}.}.",
"}.}.}.}.}.}.}.}.}.}.}.}.V.h.7 ; H z c c C A A A A B B ` y.j.k.i.#.~ J Z C C V A A A A A A A x / i.N.}.}.}.}.}.}.}.}.}.}.}.}.}.}.",
"}.}.}.}.}.}.}.}.}.}.}.}.M.h.7 ; H M M M x C C C C B B [ j.E.R.B.<.X.U x S A A V A A A A A S x / i.C.}.}.}.}.}.}.}.}.}.}.}.}.}.}.",
"}.}.}.}.}.}.}.}.}.}.}.}.V.0.7 ; H l M M c c N z x x F ' n.R.R.B.<. .R V A A A A A A A A A C x / i.N.}.}.}.}.}.}.}.}.}.}.}.}.}.}.",
"}.}.}.}.}.}.}.}.}.}.}.}.V.0.7 ; H M M M M z c L W } ' =.p.N.N.l.,.X.I A A A A A A A A A V C l / d.V.}.}.}.}.}.}.}.}.}.}.}.}.}.}.",
"}.}.}.}.}.}.}.}.}.}.}.}.V.0.7 ; H M M M M M B ` y.n.k.s.8.<.1.,.:.X.R V A A A A A A A A A C l ( i.V.}.}.}.}.}.}.}.}.}.}.}.}.}.}.",
"}.}.}.}.}.}.}.}.}.}.}.}.V.0.7 ; H M M M M M ` *.f.A.T.B.4.>.7 8 o.( D V V A A A A A A A A B C / t.V.}.}.}.}.}.}.}.}.}.}.}.}.}.}.",
"}.}.}.}.}.}.}.}.}.}.}.}.V.h.7 ; H M M l l W y.f.8.5.A.Z.B.l.,.X.Q D S A V A A A A A A A V V B ' t.N.}.}.}.}.}.}.}.}.}.}.}.}.}.}.",
"}.}.}.}.}.}.}.}.}.}.}.}.V.0.7 ; H M M n W &.s.l.>.1.c.R.R.B.<...Q I I _ I K I I D R I _ ` ' _ } d.C.}.}.}.}.}.}.}.}.}.}.}.}.}.}.",
"}.}.}.}.}.}.}.}.}.}.}.}.M.0.7 ; H l l W r.s.4.>.7 1.c.R.R.B.<.8 .. ..... . . . . . . .$.t.t.$.$.a.V.}.}.}.}.}.}.}.}.}.}.}.}.}.}.",
"}.}.}.}.}.}.}.}.}.}.}.}.V.0.7 ; H l l } n.V.<.7 >.4.z.c.B.z.4.3.<.,.:.:.,.<.<.<.<.<.<.5.A.A.5.4.x.M.}.}.}.}.}.}.}.}.}.}.}.}.}.}.",
"}.}.}.}.}.}.}.}.}.}.}.}.V.0.7 ; H l l ( n.V.<.>.l.z.4.1.1.4.x.B.A.l.,.,.z.V.B.N.N.N.N.A.T.Z.V.v.M.M.}.}.}.}.}.}.}.}.}.}.}.}.}.}.",
"}.}.}.}.}.}.}.}.}.}.}.}.M.h.:.; U l l / i.z.@.@.B.B.5.-.7 -.t.g.j.t.$.%.h.B.N.N.N.N.c.V.Z.T.V.v.M.M.}.}.}.}.}.}.}.}.}.}.}.}.}.}.",
"}.}.}.}.}.}.}.}.}.}.}.}.V.0.7 ; G l l E @.@.^ ) n.Z.A.l.>.X.} [ [ ' _ / @.3.3.<.<.<.<.5.A.A.7.4.x.M.}.}.}.}.}.}.}.}.}.}.}.}.}.}.",
"}.}.}.}.}.}.}.}.}.}.}.}.M.h.7 ; U l M U ~ ~ v / k.T.A.x.4.@./ D V F A D !  .X. . . . .$.t.t.$.+.a.V.}.}.}.}.}.}.}.}.}.}.}.}.}.}.",
"}.}.}.}.}.}.}.}.}.}.}.}.N.0.8 ; H l N v H n M / k.A.5.4.x.h.%.^ D V V S D _ I R I K I _ ' ` _ } p.V.}.}.}.}.}.}.}.}.}.}.}.}.}.}.",
"}.}.}.}.}.}.}.}.}.}.}.}.V.l.7 ; H l l J W / } &.s.a.+.$.t.f.4.@.( D A A A A A F V A A A V V V ' t.V.}.}.}.}.}.}.}.}.}.}.}.}.}.}.",
"}.}.}.}.}.}.}.}.}.}.}.}.V.0.8 ; G l M W y.n.n.s.4.@./ _ ` *.f.z.@.! D A F A A A A A A A V V V ' i.N.}.}.}.}.}.}.}.}.}.}.}.}.}.}.",
"}.}.}.}.}.}.}.}.}.}.}.}.M.z.4.@.O.] N W i.A.B.l.@.^ D F F ' i.x.3.X.R A A A A A A A A A S V V ' t.V.}.}.}.}.}.}.}.}.}.}.}.}.}.}.",
"}.}.}.}.}.}.}.}.}.}.}.}.c.M.Z.U.I.u.{ R +.3.3.@.^ n S A V _ %.<.>.X._ A A A A A A A A S S V V ' t.V.}.}.}.}.}.}.}.}.}.}.}.}.}.}.",
"}.}.}.}.}.}.}.}.}.}.}.}.c.Z.Q.!._.I.O.Y :  .X.~ J x V A A I ! ..X.! D A A A A A A A A A A A A ' i.V.}.}.}.}.}.}.}.}.}.}.}.}.}.}.",
"}.}.}.}.}.}.}.}.}.}.}.}.c.Z.Q.!._.U.o.# Y U U J Z C A A A C I I _ D S A A A A A A A A A A V V ' t.V.}.}.}.}.}.}.}.}.}.}.}.}.}.}.",
"}.}.}.}.}.}.}.}.}.}.}.}.c.V.Z.Z.U.z.5 = & H U n Z A A A A A A A A A A A A A A A A A A A S A V ' t.V.}.}.}.}.}.}.}.}.}.}.}.}.}.}.",
"}.}.}.}.}.}.}.}.}.}.}.}.V.z.<.@.:.7 1 , * ; * T K A A A A A A A A A A A A A A A A A A A A A V ' i.V.}.}.}.}.}.}.}.}.}.}.}.}.}.}.",
"}.}.}.}.}.}.}.}.}.}.}.}.M.z.>.6 6 1 < , O , , > N A A A A A A A A A A A A A S A A A A A A A V ' t.V.}.}.}.}.}.}.}.}.}.}.}.}.}.}.",
"}.}.}.}.}.}.}.}.}.}.}.}.M.c.6.7.5.1.< o o + + @ N A A A A A A A A A A A S A A A A A A A A A V ' t.V.}.}.}.}.}.}.}.}.}.}.}.}.}.}.",
"}.}.}.}.}.}.}.}.}.}.}.}.c.M.A.Z.U.6.1 X . . .   N A A A A A A A A A A A A A A A A A A S A V V [ i.V.}.}.}.}.}.}.}.}.}.}.}.}.}.}.",
"}.}.}.}.}.}.}.}.}.}.}.}.m.Z.E.Q.Q.N.5 X   b b v C S A A A A A A A S A A A A A A A A A A A A A [ t.V.}.}.}.}.}.}.}.}.}.}.}.}.}.}.",
"}.}.}.}.}.}.}.}.}.}.}.}.B.B.A.R.Q.U.8 @ b l l x S A A A A A S A A A A A S A A A A S A A S A V [ t.V.}.}.}.}.}.}.}.}.}.}.}.}.}.}.",
"}.}.}.}.}.}.}.}.}.}.}.}.B.l.>.3.E.T.7 @ b N M N S A A A A A A A A A A S A A A A A A A A A A A [ i.V.}.}.}.}.}.}.}.}.}.}.}.}.}.}.",
"}.}.}.}.}.}.}.}.}.}.}.}.V.7.1 1 l.x.5 @ b N N c A A A A S A A A A A A A A A A A A A A A A A A [ t.V.}.}.}.}.}.}.}.}.}.}.}.}.}.}.",
"}.}.}.}.}.}.}.}.}.}.}.}.V.7.1 , 1 6 , = G N Z C A A A A A A A S A A A A A A A A A A S A A B V ' t.V.}.}.}.}.}.}.}.}.}.}.}.}.}.}.",
"}.}.}.}.}.}.}.}.}.}.}.}.M.0.6 O $ @ % & M c C A A A A A A A A A A P A A A S A A A A A A A A A ' t.V.}.}.}.}.}.}.}.}.}.}.}.}.}.}.",
"}.}.}.}.}.}.}.}.}.}.}.}.M.0.8 * & v M N D C A A A A A A A A A A A A A A A A A A A A A A A A V ' t.N.}.}.}.}.}.}.}.}.}.}.}.}.}.}.",
"}.}.}.}.}.}.}.}.}.}.}.}.M.0.7 - H c S A A A A A C C C A A A A A A A A S A A A A A A A A A A V ' i.A.}.}.}.}.}.}.}.}.}.}.}.}.}.}.",
"}.}.}.}.}.}.}.}.}.}.}.}.M.0.7 ; H x C A A A A C c c C A A S A A A A A A A A A A A A S A A A V ' t.V.}.}.}.}.}.}.}.}.}.}.}.}.}.}.",
"}.}.}.}.}.}.}.}.}.}.}.}.V.0.:.; H N Z C A A A C Z c C V A A A A A A A A A A A A A A A A A A V ' i.V.}.}.}.}.}.}.}.}.}.}.}.}.}.}.",
"}.}.}.}.}.}.}.}.}.}.}.}.V.0.7 ; H M x c C A A A C C A A A A A A P A A A A A A A A S A A A V V ' t.C.}.}.}.}.}.}.}.}.}.}.}.}.}.}.",
"}.}.}.}.}.}.}.}.}.}.}.}.M.0.7 ; H l N c C A A A A A A A A A A A A A A A A A S A A A A A A A C ' t.V.}.}.}.}.}.}.}.}.}.}.}.}.}.}.",
"}.}.}.}.}.}.}.}.}.}.}.}.C.0.7 ; H M Z C A A A A A A A A S A A A A A A A A A A A A A A A A C x W i.N.}.}.}.}.}.}.}.}.}.}.}.}.}.}.",
"}.}.}.}.}.}.}.}.}.}.}.}.M.h.7 ; H c Z C C C A A A A A A A A A A A A A A A A A A A A A A A C x ( i.V.}.}.}.}.}.}.}.}.}.}.}.}.}.}.",
"}.}.}.}.}.}.}.}.}.}.}.}.V.0.7 ; H N z z c c A A A A A A A A A S A A A A A A A A A A A A A C x ( t.N.}.}.}.}.}.}.}.}.}.}.}.}.}.}.",
"}.}.}.}.}.}.}.}.}.}.}.}.V.0.7 ; H z c z M c C A A A S A A A A A A A A A A A A A A A A A A B l / d.V.}.}.}.}.}.}.}.}.}.}.}.}.}.}.",
"}.}.}.}.}.}.}.}.}.}.}.}.M.0.7 ; H z Z C S A S A A A A A A A A A A A A A A A A A A A A A A C l ( i.V.}.}.}.}.}.}.}.}.}.}.}.}.}.}.",
"}.}.}.}.}.}.}.}.}.}.}.}.V.h.7 ; H x C A A A A A A A A A S A A A A A A S A P A A A A C C C C x ( d.M.}.}.}.}.}.}.}.}.}.}.}.}.}.}.",
"}.}.}.}.}.}.}.}.}.}.}.}.M.0.:.- H c A A A A A S A A A A A A A A A C c z z c S Z C S c z z z l ( t.N.}.}.}.}.}.}.}.}.}.}.}.}.}.}.",
"}.}.}.}.}.}.}.}.}.}.}.}.M.0.7 ; H c C A A A A A A A A A A A A V A Z z M M L M c C C c M M z l ( d.C.}.}.}.}.}.}.}.}.}.}.}.}.}.}."
};
