/* XPM */
static char *result[] = {
/* columns rows colors chars-per-pixel */
"64 64 168 2 ",
"   c #3C4A3F",
".  c #4A592D",
"X  c #454D3F",
"o  c #495830",
"O  c #4A563E",
"+  c #4D5B3A",
"@  c #515D39",
"#  c #434E45",
"$  c #454D4B",
"%  c #455244",
"&  c #4B5544",
"*  c #4D5A44",
"=  c #46524A",
"-  c #4A554B",
";  c #4D5A4C",
":  c #515E44",
">  c #525D4C",
",  c #484E55",
"<  c #474E58",
"1  c #4C5553",
"2  c #4E5953",
"3  c #4D545A",
"4  c #4F595A",
"5  c #505656",
"6  c #525C53",
"7  c #50565F",
"8  c #535C5C",
"9  c #585F5D",
"0  c #4F6144",
"q  c #546145",
"w  c #586546",
"e  c #5B6A43",
"r  c #55634D",
"t  c #59654D",
"y  c #5B6C4A",
"u  c #546254",
"i  c #596454",
"p  c #566850",
"a  c #5D6B54",
"s  c #55615A",
"d  c #5A645C",
"f  c #566B5B",
"g  c #5C6B5B",
"h  c #5C7153",
"j  c #5E715C",
"k  c #606E4A",
"l  c #647544",
"z  c #637449",
"x  c #6A7C4C",
"c  c #616D54",
"v  c #626D5C",
"b  c #627155",
"n  c #6B7D57",
"m  c #63715C",
"M  c #69765D",
"N  c #545B62",
"B  c #595F65",
"V  c #545B6C",
"C  c #555E71",
"Z  c #566062",
"A  c #5B6463",
"S  c #5E6B64",
"D  c #5C646A",
"F  c #5E6A6B",
"G  c #5D7361",
"H  c #5E7862",
"J  c #5F706E",
"K  c #5E6672",
"L  c #646764",
"P  c #626C64",
"I  c #61666B",
"U  c #636C6C",
"Y  c #686E6C",
"T  c #706E6E",
"R  c #647364",
"E  c #697463",
"W  c #647A65",
"Q  c #6A7966",
"!  c #65726B",
"~  c #6A736C",
"^  c #657B6C",
"/  c #6A7B6B",
"(  c #717F66",
")  c #727D6F",
"_  c #656D72",
"`  c #696E73",
"'  c #656F78",
"]  c #667172",
"[  c #6B7374",
"{  c #677A72",
"}  c #6D7B74",
"|  c #6C747B",
" . c #6F797C",
".. c #717575",
"X. c #727B74",
"o. c #71767C",
"O. c #737B7C",
"+. c #787D7E",
"@. c #6E834F",
"#. c #72845B",
"$. c #678269",
"%. c #72816C",
"&. c #6E8075",
"*. c #758475",
"=. c #76827C",
"-. c #7A857D",
";. c #7B897C",
":. c #83927C",
">. c #6D7482",
",. c #6C7880",
"<. c #757D83",
"1. c #787F86",
"2. c #767E8A",
"3. c #797E89",
"4. c #768382",
"5. c #7A8384",
"6. c #7D8984",
"7. c #778289",
"8. c #7C848B",
"9. c #7D898C",
"0. c #7E8793",
"q. c #7F8890",
"w. c #818C86",
"e. c #81868D",
"r. c #828B8D",
"t. c #828692",
"y. c #848B93",
"u. c #898E95",
"i. c #868C99",
"p. c #8B8E9B",
"a. c #879196",
"s. c #8A9296",
"d. c #8D939B",
"f. c #8F999B",
"g. c #91959D",
"h. c #93999E",
"j. c #868EA2",
"k. c #898FA0",
"l. c #8D94A2",
"z. c #8F98A2",
"x. c #8D96A9",
"c. c #9196A2",
"v. c #949BA4",
"b. c #9A9DA5",
"n. c #9097A8",
"m. c #959CAA",
"M. c #9A9EAA",
"N. c #959EB0",
"B. c #96A0A4",
"V. c #9BA0A6",
"C. c #97A0AB",
"Z. c #9CA2AB",
"A. c #97A0B0",
"S. c #9DA5B2",
"D. c #9EA8B6",
"F. c #9FAAB9",
"G. c #A1A5AC",
"H. c #A3A8AE",
"J. c #A1A6B3",
"K. c #A3AAB5",
"L. c #A9ADB5",
"P. c #A0A7B8",
"I. c #A4ACBA",
"U. c #A9AEB9",
"Y. c #ACB1B7",
"T. c #A7B1BE",
"R. c #ACB1BB",
"E. c #ABB5C2",
/* pixels */
". + - %   % y z l l x :.6.%.x l z q ; + y b m t u 8 d F K D Z 4 o O - =   % y z l l #.w.w.%.@.l l q ; + y b G t u 8 d F K S N 8 ",
"@ + & 1 # 0 -.a.9.=.5.d.E.S.f.%.@.e * > R <.e.U U  .U d 7 < Z 2.M 0 * - # 0 6.f.r.t.V.K.T.K.f.%.@.e ; p ~ <.t.U ~ o.U d 8 < D <.",
"z.q.9.7.g p m.U.I.d.C.8.C.T.T.T.;.a | t.9.5.8.<.8.0.<.[ D V ' S.D.a.a.9.v p m.T.U.P.S.M.I.T.R.T.-.a | y.8.5.8.<.8.0.<.' V V >.m.",
"T.F.F.Z.X.g d.I.I.d.v.g.y.I.R.T.6.b 8.d.d.y.d.s.i.s.y.| K C >.D.F.F.F.C.X.f z.F.I.J.S.Z.S.T.T.T.;.m 9.d.s.s.d.s.s.d.i.| K C ,.m.",
"F.F.F.S.;.h l.D.I.M.v.C.t.m.R.T.-.v s.v.v.v.v.z.l.v.V.7.D V 2.D.D.I.I.Z.-.c z.J.I.S.Z.S.C.I.R.I.=.v d.v.v.v.h.z.d.v.V.<.K V 2.m.",
"D.F.D.C.v q d.J.I.Z.d.M.f.5.T.L.=.P s.d.s.s.v.v.d.v.B.B.>.3 >.C.S.F.F.m.a r z.J.I.J.S.J.C.Z.R.I.O.P s.s.s.d.m.d.l.v.V.B.' 7 >.n.",
"S.F.D.B.u r g.J.J.M.r.m.Z.X.B.I.O.i 7.s.d.z.v.d.c.v.m.V.2.N 3.Z.S.F.K.v.r r z.S.K.S.S.K.J.S.I.I.X.i 5.d.d.h.h.z.z.v.v.V.<.N 3.v.",
"S.F.D.f.r : s.S.J.C.e.h.I.r.s.I.5.d v.B.B.m.z.d.z.v.v.v.7.N <.C.Z.F.J.d.r > d.S.K.S.S.K.K.J.K.I.=.P c.C.C.m.h.f.f.v.m.m.7.N <.v.",
"A.D.Z.y.* q y.S.S.m.7.z.K.d.f.I.1.` s.g.h.v.v.v.v.d.z.v.8.N o.A.S.D.C.9.* w d.S.D.Z.S.S.D.S.K.I.<.[ s.h.h.v.v.v.z.d.d.c.8.N ] v.",
"D.D.Z.r.2 d z.Z.Z.B.r.z.I.s.C.Z.o.O.d.v.d.a.s.s.s.t.t.y.<.V ] C.D.S.Z.9.2 d z.C.C.S.S.D.K.Z.K.C.o.o.z.h.d.y.y.u.s.t.y.y.<.N _ l.",
"m.C.V.8.t d 9.a.a.8.| O.8.| O.} ~ L <.e.} I U I A P Y d N 1 A A.S.C.B.9.t d 9.a.y.e.7.5.5.4.O./ E P O.e.| S I P d P Y Z N 1 = D ",
"q.a.r.! f q 6 G g 8 - p a k c h #.y a v t r ; ; > g ..d > > 8 0.d.y.5.R f q > m g 6 - p c Q a h #.i a d y r ; - ; v ..i > : < 3 ",
"f u * : h 6 6 u s t ; y a b v a n y w i c m d i d I ~ P u u ` ,.F u * q j > 6 6 s t > t a / m a n w w i b M g d S I ~ ~ ~ Q o.| ",
"9.5.5.5.y. .u 6 S M R Q } 5.d.h.s.M c ~ s.g.s.d.d.c.d.} 6 O.M.Z.f.r.5.5.a. .s 6 P E E / O.5.f.h.d.M v ~ s.g.d.d.g.g.c.g.g.c.v.v.",
"S.S.K.I.I.a.u P d.V.B.Z.H.G.K.K.L.O.r | v.b.c.c.c.v.c.O.u r.S.S.D.S.I.T.I.0.u ! h.V.V.V.H.H.H.Y.L.X.r O.v.v.c.g.c.c.c.c.c.c.c.g.",
"I.I.I.T.T.y.> U V.H.H.H.Z.G.V.V.G.~ y 5.g.g.g.g.g.c.c.O.> y.S.S.K.I.I.T.E.9.* ] C.H.H.S.G.Z.Z.V.V.Y k e.g.g.g.v.g.g.c.p.i.d.d.c.",
"S.K.J.I.I.y.2 ~ C.G.H.G.G.V.G.V.B.~ & [ y.f.s.d.h.v.d._ > y.S.I.J.J.S.I.I.8.> | V.G.G.G.G.G.G.V.b.~ & [ y.f.s.s.v.v.d.i.i.i.i.u.",
"Z.Z.S.S.T.9.; ] B.V.V.G.G.G.G.V.v.Y - D 7.y.s.r.v.d.t.S 6 7.S.I.S.S.J.S.T.9.; [ B.B.G.G.G.G.V.V.c.U - D 5.a.s.y.h.d.i.c.l.g.d.m.",
"H.S.K.J.I.9.6 _ h.h.V.V.V.G.h.V.h.Y t +.v.V.c.c.c.c.p.P 6 <.S.P.J.S.S.I.I.4.u U g.h.G.V.b.h.b.B.g.P a 5.B.C.v.c.c.c.d.d.p.p.u.b.",
"Z.D.I.I.I.9.> D g.h.h.v.h.h.h.h.h.E r <.B.V.g.g.u.p.u.[ ; <.Z.S.S.K.I.I.I.9.> I g.h.h.b.h.h.h.h.g.Y u <.B.V.g.d.s.p.i.p.p.u.u.v.",
"S.S.J.P.I.z.> s d.d.d.v.g.g.h.b.h.X.> <.S.C.h.h.g.g.g...& o.Z.S.J.S.I.S.I.l.* Z f.d.s.h.h.g.h.B.h.) > 5.J.V.h.h.p.g.g.g.p.p.g.v.",
"S.M.A.S.I.d.6 s d.d.s.c.d.g.d.b.b.| > X.S.Z.B.h.d.g.g.Y ; 8.S.J.S.S.S.S.I.s.6 Z f.f.s.g.d.d.g.v.b.[ - O.Z.Z.m.h.g.g.g.g.u.g.b.V.",
"n.z.8.8.m.8.- P p.s.s.h.f.d.c.h.d.Y ; I t.m.m.C.M.M.g.g & 3.G.J.I.n.8.8.m.4.* I s.s.d.g.d.g.h.c.s.P 1 I t.m.v.m.b.b.M.Z.m.c.v.M.",
"Z N - c d > % 6 S / U U ~ ~ O.4./ 6 Z 8 I U | 7.8.7.O.6 $ B e.y.<.B - a i > % 8 A E P I Y ~ O.O./ 6 N d I U [ 7.3.<.<.2.8.2.' <.",
"+ O : ; d - , $ : k : : q h r 2 2 ; 6 w - * w ' A i 6 4 1 6 L v & O * > d - - * : w : : : a r ; ; ; > w - * r ' d d 6 1 6 i Y v ",
"+ O X ; L 5 , B T 9 , - * j g u A I X.X.o.| X.8.O.Q c - * k M > O O # > L 1 , ; - - , - ; j g 6 I U +.O.+.X.+.e.O.Q c ; * e c i ",
"u o.>...o.>.` >.| I B B 8 1 6 9 t.m.c.n.n.N.N.N.M.} i - Y ~ X.3.5.7.2.o. .<.' ` I C B V 8 2 6 d y.v.n.n.n.n.N.N.C./ 6 - ~ ) Q | ",
"N d.N.Z.M.J.J.M.n.m.m.m.c.e.P W s.v.p.n.N.n.n.m.m.~ i 8 c.v.b.J.Z.M.M.M.M.S.S.M.M.N.M.M.v.e.P / d.n.j.j.x.x.n.m.m.~ i 8 c.c.g.g.",
"* y.M.M.M.P.J.J.J.P.P.I.U.v.*./ v.v.n.K.I.m.l.n.m.;./ O.M.M.M.M.M.M.M.M.M.M.J.P.J.P.J.I.L.v.*.Q c.n.n.M.N.m.n.n.m.;.^ d y.c.g.d.",
"; 8.M.M.J.J.J.P.P.U.U.U.G.t.G -.Z.K.S.K.D.S.x.n.M.;.Q 9.v.M.M.M.M.c.M.J.S.J.J.J.J.U.L.L.Z.r./ -.V.G.Z.Z.J.S.n.n.v.;.Q S ' e.e.y.",
"d o.M.M.M.M.J.P.U.I.U.P.b.<.9 8.I.S.J.M.n.m.n.j.l.<./ w.m.M.b.M.M.M.M.M.M.M.M.G.J.K.H.K.C.r.P 1.b.b.M.Z.b.M.m.n.c.X.Q Y o.1.+.| ",
"s I v.Z.M.J.L.U.U.U.E.I.J.[ 8 y.U.m.x.l.j.l.l.j.j.5./ g.M.J.M.Z.M.M.M.M.M.M.M.M.M.M.G.K.c.9.L u.M.b.M.b.G.b.b.v.v.6.W ~ t.p.p.p.",
"_ A i.s.d.C.I.U.I.R.I.I.U.] 8 m.L.m.n.c.c.n.n.k.j.[ 8 c.J.M.M.M.M.M.M.M.M.M.M.M.M.J.M.J.c.o.I V.V.G.G.b.M.V.G.b.b.X.W ;.l.c.k.p.",
"_ B 9.p.d.C.A.A.I.T.L.D.F.! ! S.K.b.M.G.J.S.M.v.p.8 D M.M.M.M.M.M.M.M.M.M.M.J.M.M.M.Z.J.g.[ ] K.K.G.b.G.V.V.b.b.h.X./ 6.c.l.k.i.",
"I N 8.S.S.I.U.I.T.L.I.L.S.{ ;.L.U.L.G.G.M.V.G.b.t.f 5.b.M.M.M.M.M.M.M.M.M.J.J.M.J.Z.S.S.p.! 6.L.Y.L.G.G.b.b.b.V.h.X.*.f.n.c.c.i.",
"D 1 ] 8.y.d.s.v.K.D.I.R.S.! =.Y.R.L.H.G.G.b.b.b.w.2 o.G.n.M.M.n.c.t.3.3.t.p.p.c.J.J.K.G.u.S -.T.Y.L.G.G.G.b.G.b.u.i  .V.v.l.g.p.",
"' Z 7 4 4 1 3 A [ 7.r.8.5.s ^ g.M.H.G.v.V.V.G.V.=.8 F v.h.c.b.g.7.K N 4 3 , 5 B ] 7.8.8.<.u } h.G.G.Z.h.V.G.V.b.X.8 U v.c.n.c.i.",
"B K J s 1 - = = = = 2 6 p g j g d L Y U _ *.X.} i G A &.{ ~ 1.<.K F J s , - $ - = = ; u p m g i 8 v U I U } X.[ p G S &.~ ! <.o.",
"N D N s I S 2 2 1 S 8.w.6.} P Y U U 9 8 I U u 6 s S d S ( M 5 5 D D B A _ L 6 ; 1 ] r.r.6.} L [ Y U s N U ! u 6 Z F d P ^ W & # ",
"C.A.i.i.S.Z.d.| 7 r.K.K.H.Z.Z.L.Y.G.9.I c.v.d.d.g.d.s.y.e.5...3.i.p.t.i.m.M.l.o.4 a.L.H.S.Z.H.L.L.G.5.! v.v.g.d.h.d.s.u.6.6.[ Y ",
"E.T.E.P.P.P.E.p.^ f.L.K.K.H.L.L.K.K.r.! v.M.m.M.M.c.b.b.p.p.p.g.p.p.g.p.c.m.J.u.^ f.R.L.L.J.L.L.L.H.r.] M.M.n.M.b.M.b.g.p.p.i.i.",
"T.U.U.I.P.I.P.e.J B.R.T.Y.L.Y.Y.Y.Y.a.U v.Z.M.M.M.g.p.p.p.p.p.p.d.p.c.p.i.p.M.1.] Z.R.R.L.L.L.Y.Y.L.r.U M.M.M.b.M.v.b.g.g.p.t.t.",
"U.U.I.P.I.J.L.1._ K.T.L.L.L.L.Y.Y.Y.s.! b.M.M.n.g.p.p.p.g.p.p.g.p.g.p.p.p.p.Z.=.] I.R.R.L.J.L.R.Y.Y.e.] b.M.M.b.c.b.g.c.p.p.p.t.",
"I.P.I.I.P.J.K.8.$.I.R.R.K.L.K.L.Y.Y.h.6.n.v.v.v.g.p.p.p.p.p.p.g.p.p.p.g.p.c.J.5.&.L.R.T.L.L.L.R.R.Y.g.e.n.n.c.M.v.c.g.p.p.p.p.t.",
"P.P.P.S.P.P.J.O.S Z.T.T.U.U.U.U.Y.Y.f._ g.M.m.b.g.p.p.p.p.p.p.p.c.c.p.p.p.M.J.[ G F.T.R.R.I.U.U.Y.Y.s.U l.m.n.v.n.c.p.p.p.p.i.i.",
"J.S.S.S.S.J.J.[ ^ a.d.d.v.Z.V.G.H.Z.y.d t.i.k.l.n.n.c.g.p.p.i.p.p.n.c.g.n.J.G.U ^ a.a.s.c.M.V.Z.G.G.6.A y.s.d.c.M.n.c.k.c.p.i.i.",
"p.i.u.d.Z.G.b.I f 1 1 8 4 1 9 A 9 Z S u ] L B | 3.i.p.k.i.t.i.i.t.e.t.p.M.J.c.S f 1 1 4 1 1 8 d 8 9 S u Y A B | 3.t.i.p.t.t.3.K ",
"5 5 8 9 _  .} 2 ; = - 1 1 - % & - , 6 R P 8 - 9 L ` ` Y P L v v 5 5 9 8 _ | ` ; & = 1 2 - = & ; = 1 u R P 8 - 9 B T T T L L L < ",
"- $ , 9 1 1 s 2 p 2 6 s > 6 ; ; i 5 5 c 6 > * > 9 ; - w e e e e ; $ 1 8 2 4 u 2 i 1 6 u ; 2 > ; 2 1 6 f t > > > 6 ; & w e e q * ",
"e.` 3 3 F | | o.5.,.| ~ A 8 B I +.e.e.e.o...T v 8 & u M ;.*.X.*.5.` 4 5 I |  .=.6.<.| [ P 8 A I 8.s.s.8.+.T T L 9 - u Q -.-.X.X.",
"M.z.L ] a.s.d.h.f.s.u.r.5.8 5.v.b.L.G.G.G.G.b.g.s.] ; 5.V.s.w.w.C.d.A O.s.d.g.g.d.d.u.y.<.8 r.b.b.L.H.L.G.G.b.g.u.Y 6 r.b.s.w.5.",
"c.r.E s.v.v.v.m.C.m.v.m.e.8 8.V.g.L.G.G.G.b.g.b.h.8.6 <.G.h.f.O.g.e.W s.m.m.v.C.V.m.v.m.8.5 y.b.h.H.G.G.G.b.g.b.g.3.> e.V.f.s.[ ",
"u.[ m g.m.V.Z.Z.V.m.B.v.y.N <.c.u.G.G.G.G.b.b.b.g.e.5 o.g.s.V.+.u.Y R c.v.B.C.Z.C.m.v.v.t.7 7.h.s.G.G.G.G.b.b.g.p.t.1 <.s.f.B.( ",
"b...L v.v.C.V.C.V.V.v.c.t.3 8.s.e.b.G.G.G.b.b.h.p.e.1 v f.h.V.-.h.~ E m.m.V.Z.C.V.b.v.v.7.3 e.u.e.G.M.M.G.b.b.g.u.8.- P f.h.V.X.",
"V.X.E v.V.Z.B.B.C.b.v.v.e.7 +.s.1.G.G.b.G.b.b.g.g.t.5 9 v.y.f.w.g.~ ~ b.V.Z.C.B.C.B.v.v.3.7 5.u.e.G.b.b.G.G.g.b.p.e.; A m.y.g.) ",
"V.-.E n.Z.Z.Z.B.v.v.v.c.7.5 5.d.e.b.b.b.b.b.h.g.p.t.5 > h.d.g.6.h.X.Q m.V.Z.C.V.v.h.v.h.2.6 8.s.e.V.b.b.b.b.g.b.p.e.- d c.h.h.~ ",
"d.R g d.V.v.B.B.B.B.v.c.O.1 <.s.y.V.b.v.b.G.h.g.g.r.= u C.S.h.8.u.v S f.m.v.B.V.v.b.v.v.[ 1 9.t.y.G.b.c.V.V.v.g.g.5.= d Z.D.f.[ ",
"+.- r R 5.a.s.a.d.g.s.d.[ 3 D _ o.y.1.o.e.u.d.c.c.5.; S y.m.K.s.<.- 0 ! 5.y.s.s.d.g.s.s.U 3 F U O.t.O.o.e.y.p.c.c.+.> R 0.Z.I.5.",
"4 & & % ; 2 Z D S I I A S | Z 2 - ; # $ 3 5 7 D U $.f G S I o._ 6 & & % & 3 s A A A D A D ,.N 2 ; - # $ 5 5 8 B U ^ f G A I | U ",
"F <.,.] _ F D Z = # 1 5 5 ^ G s i - $ $ & - $ $ $ $.G f U 8 f d ` 7.<.' ] _ K s - $ 4 2 6 ^ j s 6 - % % - - $ $ - / G f I s g g ",
"D.F.F.D.D.D.S.m.a.2.8 s 8.9. .=.<.Y ` L f 2 I y.| 5.<.[ ..Y E =.F.T.F.S.F.F.D.m.l.7.2 d 0.r.o.1.<.` [ L g 2 ] y.o.5.1.[ ..! W ~ ",
"D.F.F.F.F.I.F.F.I.z.8 D S.I.I.L.Y.J.M.M.f.8 U C.b.v.b.d.e.e.R 6.F.I.F.F.F.F.F.F.F.d.1 U D.U.L.L.U.K.M.M.d.5 [ C.b.v.v.p.y.5.Q ~ ",
"S.P.F.F.F.D.D.D.S.i.f { D.R.Y.K.J.G.Z.J.g.8 [ Z.b.d.g.p.u.u.O.r.A.F.I.F.F.D.F.S.S.0.f X.K.R.L.L.J.Z.G.M.u.5 <.V.b.g.c.p.u.u.o...",
"N.D.D.F.D.D.D.D.A.0.H =.L.L.K.G.b.b.M.b.d.A o.C.c.s.c.i.y.u.o.7.A.S.S.D.F.D.D.D.A.9.H 6.I.I.L.G.b.b.M.J.u.B <.V.c.u.g.u.u.u.o.L "
};
